/vscmnt/brussel_pixiu_data/_data_brussel/112/vsc11236/PredSimResults/SUBJ04opt3D/SUBJ04opt3D_12158527.mot
version=1
nRows=7
nColumns=50
inDegrees=yes
endheader
                time	         pelvis_tilt	         pelvis_list	     pelvis_rotation	           pelvis_tx	           pelvis_ty	           pelvis_tz	       hip_flexion_r	     hip_adduction_r	      hip_rotation_r	        knee_angle_r	       ankle_angle_r	         mtp_angle_r	       hip_flexion_l	     hip_adduction_l	      hip_rotation_l	        knee_angle_l	       ankle_angle_l	         mtp_angle_l	    lumbar_extension	      lumbar_bending	     lumbar_rotation	 ercspn_r/activation	 intobl_r/activation	 extobl_r/activation	    abd_r/activation	    add_r/activation	hamstrings_r/activation	bifemsh_r/activation	glut_max_r/activation	iliopsoas_r/activation	rect_fem_r/activation	  vasti_r/activation	gastroc_r/activation	 soleus_r/activation	tib_ant_r/activation	 ercspn_l/activation	 intobl_l/activation	 extobl_l/activation	    abd_l/activation	    add_l/activation	hamstrings_l/activation	bifemsh_l/activation	glut_max_l/activation	iliopsoas_l/activation	rect_fem_l/activation	  vasti_l/activation	gastroc_l/activation	 soleus_l/activation	tib_ant_l/activation	
          1.30475979	         -2.21046211	          0.61122099	          8.62338924	          1.22647421	          0.88099001	         -0.01154406	         29.45583198	         -3.73014922	        -10.77643200	        -12.23958958	          4.12276918	          0.23593117	        -12.71879271	         -0.35059338	         -8.21656481	         -8.17921612	         12.54662419	         21.55486986	        -13.62801136	         -3.35221412	         -7.78638556	          0.04039083	          0.21979822	          0.01739680	          0.00999999	          0.29808753	          0.06196536	          0.03121496	          0.03795487	          0.15350553	          0.03256364	          0.03118831	          0.01000001	          0.01300104	          0.32051221	          0.04335172	          0.00999999	          0.00999999	          0.05253419	          0.01000001	          0.02494253	          0.16994213	          0.01482207	          0.01217482	          0.01000001	          0.01000000	          0.23799005	          0.24787526	          0.00999999	
          1.31780739	         -2.29826683	          0.58378081	          8.38908900	          1.24218468	          0.87887435	         -0.01108887	         29.23634599	         -3.58769724	        -10.89288567	        -13.47869200	          3.90340898	          0.22361175	        -13.38369765	         -0.49980570	         -8.87728026	         -8.75856702	         12.17033142	         23.00859375	        -13.12671833	         -2.75103519	         -7.87992009	          0.03317632	          0.22127887	          0.01428942	          0.02713545	          0.24484381	          0.06124962	          0.02563942	          0.04202794	          0.12608672	          0.02674719	          0.03236988	          0.01217460	          0.01217463	          0.34758777	          0.03894389	          0.00999999	          0.00999999	          0.04315065	          0.01000000	          0.02048736	          0.13958745	          0.01217459	          0.01000021	          0.01000000	          0.00999999	          0.19548081	          0.23892625	          0.00999999	
          1.33085499	         -2.37166610	          0.50533977	          8.10237667	          1.25816081	          0.87701021	         -0.01053784	         28.95658214	         -3.41632363	        -11.03681734	        -14.59361840	          3.46939040	          0.21539622	        -13.95114789	         -0.71557245	         -9.57372168	         -9.56686707	         11.70621936	         24.48367180	        -12.60723957	         -2.07472136	         -7.94004296	          0.02843022	          0.18175453	          0.01173708	          0.04437228	          0.22579008	          0.06464135	          0.02105978	          0.03452100	          0.10356539	          0.02196967	          0.09352066	          0.01000000	          0.01000003	          0.37719431	          0.04478277	          0.00999999	          0.00999999	          0.03544318	          0.01000000	          0.01682797	          0.11465466	          0.00999999	          0.01482193	          0.01000000	          0.00999999	          0.16056446	          0.22402544	          0.00999999	
          1.34390259	         -2.43146181	          0.39031806	          7.76579654	          1.27425460	          0.87557759	         -0.00986978	         28.63050553	         -3.21599345	        -11.27926062	        -15.63583038	          3.04915205	          0.19296400	        -14.35366935	         -0.99489856	        -10.30341832	        -10.70176270	         11.10278064	         25.99860180	        -12.09256293	         -1.34477323	         -7.96484981	          0.03521529	          0.14928995	          0.00999999	          0.06815716	          0.20303757	          0.06613092	          0.01729813	          0.02835494	          0.08506677	          0.01804550	          0.15988010	          0.01000000	          0.00999999	          0.40072547	          0.05783409	          0.00999999	          0.00999999	          0.02911240	          0.01000000	          0.01382224	          0.09417530	          0.00999999	          0.01217449	          0.01000000	          0.00999999	          0.13188480	          0.19985954	          0.00999999	
          1.35695018	         -2.47843158	          0.23925008	          7.39152598	          1.29034676	          0.87475592	         -0.00908101	         28.21980507	         -2.97395267	        -11.58839187	        -16.57720565	          2.83769419	          0.16881155	        -14.52319910	         -1.35463349	        -11.05929296	        -12.25957810	         10.31192258	         27.55864120	        -11.59704631	         -0.56822440	         -7.95435230	          0.03444761	          0.12262411	          0.00999999	          0.09853744	          0.17673912	          0.06542560	          0.01420839	          0.03542208	          0.06987234	          0.01482225	          0.20638334	          0.01000000	          0.01000000	          0.40385586	          0.08720007	          0.00999999	          0.00999999	          0.02391241	          0.01000000	          0.02482453	          0.07735392	          0.01000000	          0.01000000	          0.01000000	          0.01508459	          0.10832783	          0.16416107	          0.00999999	
          1.36999778	         -2.51385130	          0.05258585	          6.99428480	          1.30628132	          0.87470788	         -0.00817302	         27.72354079	         -2.67267343	        -11.87680028	        -17.40160340	          2.85314823	          0.14899785	        -14.39675509	         -1.81409425	        -11.83078212	        -14.31849262	          9.28577869	         29.13525588	        -11.13713252	          0.24805591	         -7.91401039	          0.03261298	          0.10072127	          0.00999999	          0.11722393	          0.16562706	          0.06688851	          0.01167053	          0.03482591	          0.05739190	          0.01217474	          0.22500716	          0.01000000	          0.01000000	          0.39348747	          0.10929355	          0.00999999	          0.00999999	          0.01964123	          0.01000002	          0.06219519	          0.06353714	          0.01374074	          0.01000000	          0.00999999	          0.02196940	          0.08897856	          0.13483899	          0.00999999	
          1.38304538	         -2.53826589	         -0.15547585	          6.58560087	          1.32196261	          0.87546753	         -0.00715796	         27.14317145	         -2.31445846	        -12.07829726	        -18.09518919	          3.06002722	          0.14408049	        -13.94983746	         -2.37362249	        -12.61114162	        -16.89748101	          7.98436814	         30.66332269	        -10.72290040	          1.08328820	         -7.84895155	          0.03240502	          0.08273066	          0.01000000	          0.12650960	          0.17071759	          0.07098296	          0.01000052	          0.02860541	          0.04714068	          0.01000011	          0.23746145	          0.01000000	          0.00999999	          0.36365707	          0.10623817	          0.01000000	          0.00999999	          0.01613295	          0.08926452	          0.08559095	          0.05218828	          0.01462855	          0.01000000	          0.00999999	          0.01804528	          0.07308541	          0.11075435	          0.00999999	
